<?xml version="1.0" encoding="utf-8"?>
<!-- Generator: Adobe Illustrator 23.0.4, SVG Export Plug-In . SVG Version: 6.00 Build 0)  -->
<svg version="1.1" id="Layer_1" xmlns="http://www.w3.org/2000/svg" xmlns:xlink="http://www.w3.org/1999/xlink" x="0px" y="0px"
	 viewBox="0 0 512 512" style="enable-background:new 0 0 512 512;" xml:space="preserve">
<style type="text/css">
	.st0{fill:#935BCE;}
	.st1{fill:#E1D2F7;}
	.st2{fill:#2B2B2B;}
</style>
<g>
	<g>
		<circle class="st0" cx="256.1" cy="179.8" r="114.8"/>
		<path class="st1" d="M292,242.1l-14.2-24.9c6.5-3.9,11.9-9.2,15.7-15.7l24.9,14.2C311.9,226.6,302.7,235.5,292,242.1L292,242.1z"
			/>
		<path class="st1" d="M327.9,179.8h-28.8c0-23.7-19.3-43-43-43V108C295.6,108,327.9,140.3,327.9,179.8z"/>
	</g>
	<g>
		<g>
			<path class="st2" d="M59.8,394.2c0,5.6-1.8,11-5.6,15.4s-8.6,7.7-14.8,9.5c-2.7,0.6-5.6,1.2-8.6,1.5c-3.3,0.3-6.5,0.6-10.4,0.6
				v24.6h-9.5c0-2.4,0-6.5,0.3-13.1c0.3-6.5,0-16,0-29.4c0-4.2,0-9.5,0-15.4c0-6.2,0-13.1-0.3-20.5c1.8,0,3.3,0,5,0c1.5,0,3,0,3.9,0
				c6.8,0,12.5,0.3,17.2,1.2c4.7,0.9,8.6,2.4,11.9,4.5c3.6,2.1,6.2,5,8,8.6C58.9,385.3,59.8,389.5,59.8,394.2z M49.7,394.2
				c0-4.2-0.9-7.4-2.7-10.4c-1.8-3-4.7-5-8.3-6.8c-2.4-0.9-4.7-1.8-7.7-1.8c-2.7-0.3-5.6-0.3-8.3-0.3c-0.3,0-0.6,0-1.2,0
				c-0.6,0-0.6,0-1.2,0c0,0.3,0,3.3,0,8.9c0,5.3,0,9.8,0,12.8s0,6.2,0,10.1s0,6.2,0,6.8c0.3,0,0.9,0,1.2,0c0.6,0,0.9,0,1.2,0
				c2.7,0,5.3-0.3,8.3-0.6s5.3-0.9,7.7-2.1c3.6-1.5,6.5-3.9,8.3-6.5C48.8,401.7,49.7,398.4,49.7,394.2z"/>
			<path class="st2" d="M138.7,441.1l-7.4,5.9c-0.9-0.9-3.9-4.2-9.2-10.1c-5.3-5.9-13.4-15.1-24-27.6v-0.6c1.5-0.3,3.6-1.2,5.9-2.7
				c2.4-1.5,4.5-2.7,6.2-4.2c1.5-1.2,2.7-3,3.9-5c1.2-2.1,1.5-4.5,1.5-7.7c0-3-0.9-5.6-2.4-7.7s-3.9-3.9-6.5-4.7
				c-2.4-0.9-4.7-1.5-7.1-1.5c-2.4-0.3-4.7-0.3-6.8-0.3c-1.5,0-2.4,0-3.3,0c-0.6,0-1.2,0-1.8,0c0,7.4,0,13.9,0,19.6s0,9.8,0,11.9
				c0,5.3,0,12.5,0,21.7c0,9.2,0,14.8,0,17.2h-9.8c0-2.4,0-6.8,0.3-13.6c0-6.8,0-15.1,0-25.2c0-2.1,0-5.6,0-10.7
				c0-5.3,0-14.8-0.3-28.8c0.3,0,2.4,0,5.9,0s6.8,0,9.8,0c3.3,0,6.5,0.3,9.8,0.6c3.3,0.3,6.2,1.2,9.2,2.4c3.9,1.8,6.8,4.2,9.2,7.1
				c2.4,3,3.3,6.8,3.3,11.3c0,5.6-1.8,10.1-5,13.9c-3.3,3.6-6.5,6.5-9.8,8.3v0.3c5.3,6.2,11.3,12.8,17.5,19.3
				C134.8,437,138.4,440.5,138.7,441.1z"/>
			<path class="st2" d="M163.9,445.6h-9.5c0-2.4,0-6.5,0.3-12.5c0-5.9,0-14.5,0-25.8c0-4.5,0-10.4,0-17.5c0-7.1,0-14.8-0.3-22.5h9.5
				c0,5.6,0,12.2-0.3,19.3c0,7.4,0,13.4,0,18.1c0,11.9,0,21.1,0,27.6S163.9,443.2,163.9,445.6z"/>
			<path class="st2" d="M230.6,423.6c0,4.2-0.9,7.4-3,10.7c-2.1,3.3-4.5,5.3-7.7,7.4c-3,1.8-6.2,3-10.1,3.9c-3.9,0.9-8,1.2-12.5,1.2
				c-2.4,0-5,0-7.7-0.3s-4.2-0.3-4.7-0.3l-0.6-8.3c0.6,0,2.1,0.3,4.5,0.3c2.4,0.3,5.3,0.3,8.9,0.3c2.1,0,4.7-0.3,8-0.9
				c3.3-0.6,5.6-1.2,7.4-2.1c2.4-1.2,4.2-2.4,5.3-4.2c1.2-1.5,1.8-3.6,1.8-5.9c0-2.7-0.6-4.7-1.8-6.5c-1.2-1.8-3.3-3.6-6.2-5.3
				c-1.8-1.2-4.2-2.4-7.1-3.6c-3-1.2-5.6-2.7-8-4.2c-3.9-2.4-6.8-5-8.6-8c-1.8-3-2.7-5.9-2.7-9.5s0.9-6.8,2.4-9.2
				c1.5-2.7,3.6-4.7,5.9-6.8c2.4-1.8,5.6-3.3,9.2-4.2c3.6-0.9,7.7-1.5,12.2-1.5c2.4,0,4.7,0,7.4,0.3s3.9,0.3,4.2,0.3l0.9,8.6
				c-0.3,0-1.8-0.3-4.2-0.3c-2.4-0.3-5.6-0.3-9.2-0.3c-2.1,0-4.5,0.3-6.8,0.6c-2.4,0.6-4.5,1.2-6.2,2.4c-1.5,0.9-3,2.1-3.9,3.9
				s-1.8,3.6-1.8,5.6c0,1.8,0.6,3.9,1.8,5.6c1.2,1.8,3.3,3.6,6.5,5.3c1.5,0.9,3.9,2.1,6.2,3.3c2.7,1.2,5.3,2.7,7.7,4.2
				c3.9,2.4,6.8,5,8.9,8C229.7,416.5,230.6,419.8,230.6,423.6z"/>
			<path class="st2" d="M305.7,375.6c-0.6,0-3.3,0-7.7,0s-11.6,0-20.8,0c0,8,0,13.9-0.3,18.1c0,4.2,0,9.8,0,16.9
				c0,6.8,0,13.9,0,20.8c0,6.8,0,11.9,0,14.2h-9.5c0-2.4,0-7.1,0.3-14.2c0.3-7.1,0-14.2,0-21.1c0-6.8,0-12.2,0-16.3
				c0-3.9,0-10.1-0.3-18.4c-8.3,0-15.1,0-20.2,0c-5,0-8,0-8.6,0v-8c4.2,0,8.9,0,14.5,0c5.6,0,11.9,0,18.4,0c9.5,0,17.2,0,23.7,0
				c6.2,0,9.8,0,10.4,0L305.7,375.6L305.7,375.6z"/>
			<path class="st2" d="M329.7,445.6h-9.5c0-2.4,0-6.5,0.3-12.5c0-5.9,0-14.5,0-25.8c0-4.5,0-10.4,0-17.5c0-7.1,0-14.8-0.3-22.5h9.5
				c0,5.6,0,12.2-0.3,19.3c0,7.4,0,13.4,0,18.1c0,11.9,0,21.1,0,27.6S329.7,443.2,329.7,445.6z"/>
			<path class="st2" d="M424.4,367.5c0,6.2,0,13.1-0.3,21.1c0,8,0,13.6,0,16.9c0,11,0,19.9,0,26.4c0,6.5,0,10.1,0,10.4l-7.7,3.9
				c-11.9-16-22.8-30.3-32.9-43c-10.1-12.8-16-20.2-17.8-22.3l0,0c0,10.4,0,23.1,0.3,38.6c0,15.1,0.3,24,0.3,26.4H357
				c0-0.9,0-4.5,0.3-10.4c0-5.9,0-14.2,0-24.9c0-4.2,0-9.8,0-16.9c0-7.1,0-14.5-0.3-22.3l8.9-4.2c0.6,0.9,6.5,8.6,17.8,22.8
				c11.3,14.2,22,27.6,31.7,39.8l0,0c0-5.9,0-16-0.3-30.3c-0.3-14.2-0.3-24.6-0.3-31.4h9.5V367.5z"/>
			<path class="st2" d="M501.2,445.6c-0.3,0-3,0-7.7,0s-10.7,0-17.8,0c-5,0-9.5,0-13.6,0c-4.2,0-7.7,0-10.4,0c0-2.4,0-7.1,0.3-14.5
				c0-7.4,0-15.4,0-23.4c0-4.5,0-10.1,0-17.5c0-7.1,0-14.8-0.3-22.5c2.7,0,6.2,0,10.4,0s8.3,0,12.8,0c7.4,0,13.4,0,18.1,0
				s7.1,0,7.7,0v8c-0.3,0-3,0-7.4,0s-10.1,0-16.9,0c-3,0-5.9,0-8.6,0c-2.7,0-5,0-6.5,0c0,4.5,0,8.9,0,13.1c0,4.5,0,8.6,0,12.5
				c1.8,0,3.9,0,6.2,0c2.4,0,4.5,0,6.5,0c6.8,0,13.1,0,18.4,0s8.3,0,8.6,0v8c-0.3,0-3.6,0-9.5,0c-6.2,0-11.6,0-16.9,0
				c-1.8,0-4.2,0-6.8,0c-2.7,0-4.7,0-6.5,0c0,7.4,0,13.4,0,17.5c0,4.5,0,8,0,11c2.4,0,5,0,8.3,0c3.3,0,6.8,0,10.7,0
				c5.9,0,10.7,0,14.5,0s6.2,0,6.5,0L501.2,445.6L501.2,445.6z"/>
		</g>
	</g>
</g>
</svg>
